#!OML:ASF I:\Actors\actors\Patient Classification 1\Patient 1\Session 1\Subject1.ASF
:FULLY-SPECIFIED
:DEGREES
2607
root 0.688566 17.3639 9.48719 6.49146 0.255469 -8.23942
lowerback -2.8792 0.775856 5.50023
upperback -9.92234 1.30928 1.91537
thorax -8.79425 0.304835 -1.09939
lowerneck -7.69199 -5.64574 -4.27534
upperneck 16.9205 -8.19182 5.7893
head 6.83988 -3.77591 1.87102
rclavicle -2.98177e-015 1.0138e-014
rhumerus -50.4599 -15.5577 -72.3556
rradius 24.0756
rwrist 33.1555
rhand -0.258101 -23.7438
rfingers 7.12502
rthumb 25.3431 667.92
lclavicle -2.98177e-015 1.0138e-014
lhumerus -52.3867 0.696865 85.1799
lradius 45.9984
lwrist 20.0579
lhand -33.2536 -17.3613
lfingers 7.12502
lthumb -6.459 12.5202
rfemur 1.13467 22.9287 26.2655
rtibia 2.83331
rfoot -14.6125 -27.1218
rtoes 4.03541
lfemur 10.2456 -42.225 -15.1707
ltibia -4.79955
lfoot -17.3241 48.6718
ltoes 2.06903
2608
root 0.685745 17.3633 9.48658 6.52266 0.33878 -8.20569
lowerback -2.89456 0.798658 5.48462
upperback -9.90933 1.33628 1.88776
thorax -8.7683 0.319058 -1.12111
lowerneck -7.58235 -5.61019 -4.22191
upperneck 16.7509 -8.1554 5.86214
head 6.765 -3.75384 1.89336
rclavicle -7.95139e-016 1.68967e-014
rhumerus -50.7457 -18.3593 -69.9099
rradius 22.3607
rwrist 35.0622
rhand 1.74875 -24.2952
rfingers 7.12502
rthumb 27.2643 667.656
lclavicle -7.95139e-016 1.68967e-014
lhumerus -51.6413 1.70841 84.5466
lradius 43.4893
lwrist 18.8233
lhand -32.6156 -17.2409
lfingers 7.12502
lthumb -5.84314 12.6585
rfemur 1.15629 22.9504 26.2338
rtibia 2.72448
rfoot -14.6026 -27.2207
rtoes 4.14402
lfemur 10.1844 -42.3038 -15.1582
ltibia -4.80403
lfoot -17.3388 48.6713
ltoes 2.21197
2609
root 0.684177 17.3636 9.48674 6.55309 0.401478 -8.1685
lowerback -2.9034 0.852474 5.47456
upperback -9.9049 1.40487 1.84242
thorax -8.75276 0.352225 -1.16655
lowerneck -7.5575 -5.62648 -4.16627
upperneck 16.722 -8.19274 5.90938
head 6.75312 -3.7654 1.89697
rclavicle 1.14301e-014 1.98785e-015
rhumerus -51.2925 -21.2466 -67.2559
rradius 20.8016
rwrist 37.3427
rhand 3.64957 -25.1463
rfingers 7.12502
rthumb 29.0811 667.104
lclavicle 1.14301e-014 1.98785e-015
lhumerus -50.8854 2.88866 83.7123
lradius 40.6534
lwrist 17.1053
lhand -31.6646 -18.9496
lfingers 7.12502
lthumb -4.92484 10.9731
rfemur 1.17018 22.9978 26.1992
rtibia 2.65617
rfoot -14.6419 -27.3224
rtoes 4.26931
lfemur 10.2221 -42.5621 -15.2592
ltibia -4.80545
lfoot -17.5091 48.859
ltoes 2.4329
2610
root 0.683404 17.3642 9.48699 6.59777 0.455509 -8.20643
lowerback -2.91861 0.903647 5.5337
upperback -9.89454 1.47271 1.82722
thorax -8.72736 0.381302 -1.21826
lowerneck -7.61539 -5.67078 -4.22032
upperneck 16.7655 -8.26698 6.01946
head 6.78833 -3.79362 1.93206
rclavicle -5.66536e-015 -8.74653e-015
rhumerus -52.0298 -23.9355 -64.5786
rradius 19.5148
rwrist 39.8346
rhand 5.6067 -26.1643
rfingers 7.12502
rthumb 30.9485 666.424
lclavicle -5.66536e-015 -8.74653e-015
lhumerus -50.198 3.93992 83.1867
lradius 38.6465
lwrist 16.2604
lhand -31.9607 -16.6975
lfingers 7.12502
lthumb -5.2108 13.2184
rfemur 1.14553 23.0031 26.2426
rtibia 2.6388
rfoot -14.6622 -27.3605
rtoes 4.35772
lfemur 10.2193 -42.7463 -15.2278
ltibia -4.82942
lfoot -17.5702 49.0083
ltoes 2.41396
2611
root 0.682529 17.3645 9.48669 6.65923 0.511927 -8.3042
lowerback -2.94356 0.936576 5.65307
upperback -9.88526 1.51742 1.82515
thorax -8.69887 0.394866 -1.28821
lowerneck -7.66557 -5.71825 -4.24612
upperneck 16.8358 -8.36083 6.17756
head 6.83294 -3.8254 1.97615
rclavicle 1.14301e-014 -2.38542e-015
rhumerus -52.8801 -26.3086 -62.0464
rradius 18.4369
rwrist 42.3703
rhand 7.57299 -27.2069
rfingers 7.12502
rthumb 32.8209 665.755
lclavicle 1.14301e-014 -2.38542e-015
lhumerus -49.5769 5.19276 82.446
lradius 36.467
lwrist 14.9033
lhand -32.0383 -15.9022
lfingers 7.12502
lthumb -5.2857 14.0119
rfemur 1.06594 22.9828 26.3395
rtibia 2.65831
rfoot -14.6566 -27.3816
rtoes 4.24367
lfemur 10.1062 -42.7568 -15.014
ltibia -4.85589
lfoot -17.5125 48.9993
ltoes 2.34103
2612
root 0.680938 17.3638 9.48708 6.71365 0.547623 -8.35582
lowerback -2.95479 0.960966 5.71617
upperback -9.88828 1.54946 1.80134
thorax -8.69254 0.404801 -1.34958
lowerneck -7.69162 -5.7403 -4.28085
upperneck 16.9826 -8.4328 6.37977
head 6.89915 -3.84281 2.03813
rclavicle 1.30204e-014 -5.56597e-015
rhumerus -53.8421 -28.4296 -59.6287
rradius 17.4531
rwrist 45.0601
rhand 9.1642 -28.2667
rfingers 7.12502
rthumb 34.3332 665.024
lclavicle 1.30204e-014 -5.56597e-015
lhumerus -49.0878 6.50751 81.5525
lradius 34.2909
lwrist 13.2124
lhand -31.941 -15.7495
lfingers 7.12502
lthumb -5.1918 14.1669
rfemur 1.00213 23.0038 26.3892
rtibia 2.66378
rfoot -14.6559 -27.432
rtoes 4.14977
lfemur 9.99842 -42.7288 -14.8592
ltibia -4.86391
lfoot -17.3888 48.9761
ltoes 2.17099
2613
root 0.678781 17.3629 9.48878 6.72893 0.577221 -8.38729
lowerback -2.92935 0.974373 5.70861
upperback -9.88678 1.56907 1.79563
thorax -8.70435 0.414626 -1.35273
lowerneck -7.61883 -5.7895 -4.31807
upperneck 16.9363 -8.51202 6.47524
head 6.8819 -3.87808 2.06969
rclavicle -7.95139e-016 -8.34896e-015
rhumerus -54.8564 -30.207 -57.3596
rradius 16.5187
rwrist 47.9732
rhand 10.3095 -29.2434
rfingers 7.12502
rthumb 35.4199 664.3
lclavicle -7.95139e-016 -8.34896e-015
lhumerus -48.6823 7.98299 80.5301
lradius 32.1593
lwrist 11.0964
lhand -31.6774 -15.5477
lfingers 7.12502
lthumb -4.93728 14.3747
rfemur 1.02316 23.0944 26.4543
rtibia 2.62643
rfoot -14.6484 -27.5644
rtoes 4.07672
lfemur 9.9787 -42.7383 -14.7858
ltibia -4.88519
lfoot -17.3388 48.9673
ltoes 2.12588
2614
root 0.677217 17.3623 9.49021 6.73656 0.609469 -8.41589
lowerback -2.90916 0.99148 5.6816
upperback -9.87273 1.59346 1.80845
thorax -8.6994 0.429879 -1.32562
lowerneck -7.57654 -5.82033 -4.27462
upperneck 16.8906 -8.55042 6.43037
head 6.85817 -3.89916 2.04624
rclavicle 9.83984e-015 -3.33958e-014
rhumerus -55.9089 -31.7207 -55.2171
rradius 15.6936
rwrist 50.9041
rhand 11.2983 -29.9988
rfingers 7.12502
rthumb 36.3567 663.773
lclavicle 9.83984e-015 -3.33958e-014
lhumerus -48.2437 9.73449 79.3223
lradius 29.8863
lwrist 8.36507
lhand -31.3416 -15.376
lfingers 7.12502
lthumb -4.61296 14.5538
rfemur 1.05676 23.2238 26.5247
rtibia 2.59067
rfoot -14.6605 -27.7246
rtoes 4.10642
lfemur 9.99025 -42.8075 -14.7417
ltibia -4.91111
lfoot -17.4738 48.9781
ltoes 2.39317
2615
root 0.676062 17.3621 9.49162 6.77081 0.619239 -8.44231
lowerback -3.12203 0.992071 5.60201
upperback -9.71124 1.57211 1.88017
thorax -8.39818 0.438817 -1.20145
lowerneck -7.72461 -5.83707 -4.30921
upperneck 16.8632 -8.56307 6.43842
head 6.87813 -3.90346 2.04896
rclavicle 7.55382e-015 5.96354e-015
rhumerus -56.7201 -33.1815 -53.2655
rradius 15.0427
rwrist 53.5574
rhand 12.1786 -30.647
rfingers 7.12502
rthumb 37.1896 663.338
lclavicle 7.55382e-015 5.96354e-015
lhumerus -47.5735 12.0023 77.8798
lradius 27.421
lwrist 4.99922
lhand -30.828 -15.005
lfingers 7.12502
lthumb -4.11707 14.935
rfemur 1.02059 23.2726 26.5553
rtibia 2.606
rfoot -14.6815 -27.7521
rtoes 4.27699
lfemur 9.95234 -42.8446 -14.6809
ltibia -4.90752
lfoot -17.5631 48.9932
ltoes 2.53467
2616
root 0.675441 17.3627 9.49369 6.82299 0.616019 -8.47657
lowerback -3.75691 0.933549 5.36788
upperback -9.25313 1.43025 2.09997
thorax -7.53726 0.422024 -0.826538
lowerneck -8.06553 -5.79874 -4.38288
upperneck 16.5874 -8.46519 6.42401
head 6.84657 -3.85806 2.05706
rclavicle -2.78299e-014 4.21423e-014
rhumerus -56.9023 -34.6439 -51.7057
rradius 14.4948
rwrist 55.9263
rhand 12.7116 -31.1075
rfingers 7.12502
rthumb 37.6934 663.011
lclavicle -2.78299e-014 4.21423e-014
lhumerus -46.5598 15.2788 76.0759
lradius 24.7271
lwrist 0.664102
lhand -30.0323 -14.3773
lfingers 7.12502
lthumb -3.34867 15.5761
rfemur 0.940491 23.2353 26.5636
rtibia 2.63614
rfoot -14.6877 -27.6909
rtoes 4.29634
lfemur 9.86837 -42.8116 -14.579
ltibia -4.89707
lfoot -17.4972 48.9754
ltoes 2.41237
2617
root 0.674899 17.3633 9.49684 6.8827 0.624229 -8.48165
lowerback -3.77578 0.985791 5.3516
upperback -9.2607 1.49857 2.08657
thorax -7.53077 0.45674 -0.833056
lowerneck -8.05279 -5.84726 -4.39614
upperneck 16.6365 -8.53771 6.44503
head 6.86589 -3.89146 2.05912
rclavicle 3.47873e-015 -1.98785e-014
rhumerus -57.8458 -35.4026 -50.3986
rradius 14.2257
rwrist 57.3408
rhand 12.9377 -31.3503
rfingers 7.12502
rthumb 37.907 662.825
lclavicle 3.47873e-015 -1.98785e-014
lhumerus -46.4381 18.4881 73.5084
lradius 21.9965
lwrist -4.48537
lhand -29.0157 -13.705
lfingers 7.12502
lthumb -2.36684 16.2616
rfemur 0.8754 23.2639 26.5466
rtibia 2.64544
rfoot -14.7363 -27.7033
rtoes 4.36097
lfemur 9.79394 -42.8283 -14.5123
ltibia -4.90854
lfoot -17.497 48.9874
ltoes 2.36936
2618
root 0.674073 17.3635 9.50108 6.91281 0.654439 -8.44432
lowerback -3.23862 1.09919 5.48502
upperback -9.66749 1.70349 1.8861
thorax -8.27445 0.517155 -1.1333
lowerneck -7.79816 -5.92837 -4.44075
upperneck 17.0743 -8.71045 6.59077
head 6.98049 -3.9644 2.1016
rclavicle 2.5842e-015 -1.51076e-014
rhumerus -59.3224 -35.5002 -49.332
rradius 14.1403
rwrist 58.1223
rhand 13.0964 -31.4675
rfingers 7.12502
rthumb 38.0569 662.749
lclavicle 2.5842e-015 -1.51076e-014
lhumerus -47.3152 21.5095 70.1185
lradius 19.49
lwrist -10.1336
lhand -27.8052 -12.9526
lfingers 7.12502
lthumb -1.19777 17.0238
rfemur 0.866962 23.2969 26.5019
rtibia 2.6393
rfoot -14.8052 -27.7406
rtoes 4.59461
lfemur 9.82347 -43.0131 -14.5861
ltibia -4.92531
lfoot -17.6572 49.136
ltoes 2.60424
2619
root 0.673914 17.3634 9.50479 6.90603 0.689705 -8.41684
lowerback -3.02113 1.14362 5.49593
upperback -9.79161 1.78217 1.8109
thorax -8.53263 0.543855 -1.22609
lowerneck -7.82103 -5.94267 -4.53842
upperneck 17.3991 -8.77053 6.75762
head 7.10497 -3.97947 2.16282
rclavicle 1.23246e-014 -6.36111e-015
rhumerus -59.8851 -35.517 -48.956
rradius 14.0026
rwrist 58.7379
rhand 13.2519 -31.5358
rfingers 7.12502
rthumb 38.2037 662.721
lclavicle 1.23246e-014 -6.36111e-015
lhumerus -48.3536 25.1549 66.2782
lradius 17.3023
lwrist -16.2284
lhand -26.6308 -11.7886
lfingers 7.12502
lthumb -0.0635052 18.1912
rfemur 0.894574 23.3152 26.4812
rtibia 2.63387
rfoot -14.8533 -27.7787
rtoes 4.81823
lfemur 9.93907 -43.269 -14.7313
ltibia -4.9359
lfoot -17.7937 49.3556
ltoes 2.80538
